<svg width="46" height="46" viewBox="0 0 46 46" fill="none" xmlns="http://www.w3.org/2000/svg">
<circle cx="23" cy="23" r="23" fill="#EFF2F4"/>
<path d="M23.5 12L16.1844 19.5093H12V24.5683H13.0268L15.3112 32.3938L15.4911 33H31.5089L31.6888 32.3938L33.9732 24.5683H35V19.5093H30.8156L23.5 12ZM23.5 14.398L28.4803 19.5093H18.5205L23.5 14.398ZM13.6429 21.1956H33.3571V22.882H32.7411L32.5612 23.4882L30.2768 31.3137H16.7232L14.4388 23.4882L14.2589 22.882H13.6429V21.1956ZM19.3929 23.7251V29.6273H21.0357V23.7251H19.3929ZM22.6786 23.7251V29.6273H24.3214V23.7251H22.6786ZM25.9643 23.7251V29.6273H27.6071V23.7251H25.9643Z" fill="#0E2149"/>
</svg>
