<svg width="42" height="29" viewBox="0 0 42 29" fill="none" xmlns="http://www.w3.org/2000/svg">
<path d="M42 0H0V24L21 29L42 24V0Z" fill="#EB7D3F"/>
<path d="M5.86033 17.156C7.56333 17.156 8.60333 16.532 9.55233 15.544L8.52533 14.504C7.74533 15.232 7.03033 15.687 5.91233 15.687C4.17033 15.687 2.90933 14.231 2.90933 12.45C2.90933 10.643 4.17033 9.213 5.91233 9.213C6.95233 9.213 7.73233 9.668 8.46033 10.344L9.48733 9.161C8.61633 8.329 7.60233 7.744 5.92533 7.744C3.16933 7.744 1.23233 9.863 1.23233 12.45C1.23233 15.089 3.20833 17.156 5.86033 17.156ZM9.42599 17H10.986V15.349L12.104 14.166L14.184 17H16.043L13.157 13.022L15.822 10.136H13.976L10.986 13.425V10.136H9.42599V17ZM15.507 17H16.989L20.252 12.424V17H21.773V10.136H20.291C19.199 11.67 18.12 13.204 17.041 14.738V10.136H15.507V17ZM21.3283 18.651H22.6413L22.7973 17H27.6073V18.651H28.9203L29.1283 15.648H28.1533V10.136H22.8363V10.981C22.8363 12.905 22.6413 14.504 22.0693 15.648H21.3283V18.651ZM23.6813 15.648C24.0843 14.803 24.3183 13.646 24.3183 12.398V11.488H26.5803V15.648H23.6813ZM28.8117 17H30.3717V15.349L31.4897 14.166L33.5697 17H35.4287L32.5427 13.022L35.2077 10.136H33.3617L30.3717 13.425V10.136H28.8117V17ZM40.6518 17V12.931C40.6518 11.098 39.6638 10.032 37.6358 10.032C36.5178 10.032 35.7768 10.266 35.0228 10.604L35.4518 11.865C36.0758 11.605 36.6478 11.436 37.4148 11.436C38.5068 11.436 39.1048 11.956 39.1048 12.905V13.035C38.5718 12.866 38.0388 12.749 37.2068 12.749C35.6078 12.749 34.4248 13.477 34.4248 14.998C34.4248 16.402 35.5688 17.143 36.8688 17.143C37.9088 17.143 38.6238 16.714 39.0918 16.155V17H40.6518ZM39.1308 14.517C39.1308 15.375 38.3508 15.96 37.3108 15.96C36.5698 15.96 35.9848 15.596 35.9848 14.946C35.9848 14.257 36.5698 13.854 37.5578 13.854C38.1688 13.854 38.7278 13.971 39.1308 14.127V14.517Z" fill="white"/>
</svg>
