<svg width="30" height="30" viewBox="0 0 30 30" fill="none" xmlns="http://www.w3.org/2000/svg">
<circle cx="15" cy="15" r="15" fill="white"/>
<path d="M15 8.06714L16.875 11.8536L17.1875 12.5321L17.8668 12.6339L22.0516 13.2379L19.0761 16.1557L18.5666 16.6511L18.6889 17.3296L19.4022 21.4893L15.659 19.5282L15 19.25L14.3682 19.5825L10.625 21.5164L11.3043 17.3568L11.4266 16.6782L10.9239 16.1557L7.9212 13.2039L12.106 12.6L12.7853 12.4982L13.0978 11.8196L15 8.06714ZM15 5L11.909 11.2564L5 12.2539L10 17.1261L8.81793 24L15 20.7564L21.1821 24L20 17.1261L25 12.2607L18.091 11.2564L15 5Z" fill="#B8C1CA"/>
</svg>
